<?xml version="1.0" encoding="utf-8"?>
<!-- Generator: Adobe Illustrator 23.0.1, SVG Export Plug-In . SVG Version: 6.00 Build 0)  -->
<svg version="1.1" baseProfile="tiny" id="Layer_1" xmlns="http://www.w3.org/2000/svg" xmlns:xlink="http://www.w3.org/1999/xlink"
	 x="0px" y="0px" viewBox="0 0 1280 800" xml:space="preserve">
<g>
	<g>
		<path fill-rule="evenodd" fill="#FFFFFF" d="M785,439.1c-0.5-0.3-0.9-0.6-1.3-1c-3.3-0.4-6.6-0.6-9.9-1c-24.8-2.9-47.7-11.1-69-24
			c-6.9-4.2-13.5-8.9-19.6-13.9c-7.6,6-16.5,10.6-26.2,13.3c1.2,1.1,2.5,2.3,3.8,3.4c33.7,29.3,72.8,45.6,117.2,49.3
			c6.1,0.5,12.5,1.2,18.6-0.7c0-0.1,0-0.1,0-0.2C795.3,455.3,790.7,446.9,785,439.1z"/>
		<path fill-rule="evenodd" fill="#FFFFFF" d="M985.5,211.5c-27.2-95.3-121-155.7-219.6-141.4c-38.6,5.6-72.4,21.5-101.9,47
			c-8.8,7.6-16.5,16-24.2,25l0,0c-5.1,7-10.2,14-14.9,21.3c-0.4-0.1-0.7-0.3-1.1-0.5c0,0.1-0.1,0.1-0.1,0.1
			c-7.7,12.2-13.5,25.3-18.2,38.9c-7.9,23-11,46.6-10.4,70.9c0.1,4.8,0.5,9.5,0.9,14.2c7.9-5.4,16.9-9.3,26.7-11.3
			c-1.7-28.8,4.1-57.4,17.3-85.8c-0.1-0.6-0.2-1.3-0.1-1.9c4-8.6,9-16.7,14.9-24.1c0.2,0.3,0.4,0.6,0.6,0.9c0.2-0.3,0.4-0.6,0.6-0.8
			c6.8-9.2,14.3-17.9,22.9-25.4c36.1-31.5,77.9-46.8,126-44.1c27.6,1.5,53.3,9.1,76.9,23.1c31.4,18.6,55,44.6,70.1,78
			c12.9,28.7,17.9,58.7,14.1,89.9c-4.9,40.5-21.6,75.4-51.1,103.9C889,414.5,858.4,430,823,436.1c-2.9,0.5-5.9,0.5-8.5,1.9
			c-0.1,0.1-0.2,0.3-0.2,0.4s0,0.1,0,0.2c3.7,7.9,7.4,15.9,11,23.8c9.8-1.9,19.6-4,29.2-7C956.8,423.3,1015,315,985.5,211.5z"/>
		<path fill-rule="evenodd" fill="#FFFFFF" d="M804.1,585.6c-15,48.4-46.8,84.1-95.5,106.1c-32,14.5-65.8,17.7-100.2,11.3
			c-37.8-7-69.7-24.9-95.7-53.4c-17.2-18.9-29.5-40-36.9-63.2c-4.8,2.7-10.5,4.2-16.6,4.2c-3.4,0-6.6-0.5-9.7-1.4
			c0.6,1.9,1.1,3.8,1.7,5.7c29.9,92.5,123.9,152.2,224.7,133.9c42-7.6,78.1-26.9,107.3-58c23.2-24.8,38.9-51.9,47.4-81.2
			c-2.7,0.7-5.6,1.1-8.6,1.1C815.4,590.7,809.2,588.8,804.1,585.6z"/>
		<path fill-rule="evenodd" fill="#FFFFFF" d="M823,460.3c-2.8-6.1-5.4-12.4-8.4-18.4c-0.6-1.1-1-2.3-0.4-3.5c0-2.9-1.7-5.1-3.1-7.3
			c-10.6-16.5-22.4-31.9-37.2-45.1c-18.8-16.7-39.4-29.4-61.9-38.1c-0.4,9.5-2.8,18.4-6.7,26.5c5.1,2.1,10.2,4.4,15.1,7.1
			c23.7,12.7,43.8,29.8,59.5,51.8c1.2,1.7,2.3,3.5,3.9,4.9c0.4,0,0.7,0.1,1.1,0.1c1.6,0.5,2.4,1.7,3.3,3c3.8,5.9,7.2,12.1,10.1,18.4
			c0.7,1.5,1.7,3,0.5,4.7h-0.1c-0.5,2.5,1,4.6,1.8,6.8c8.1,20.7,12.3,41.9,12.1,63.4c3-0.9,6.3-1.3,9.6-1.3c5.9,0,11.4,1.4,16.1,3.9
			c0.1-12.2-0.8-24.7-2.8-37.6s-5.9-25.2-10.2-37.4C824,462.2,823.5,461.2,823,460.3z"/>
		<path fill-rule="evenodd" fill="#FFFFFF" d="M467.8,534.5c-0.2-22.1,3.7-43.8,12.3-64.7c0.6-1.4,1.4-2.8,1.2-4.4
			c-0.2-0.2-0.3-0.4-0.5-0.6c-0.8-0.6-1.7-0.6-2.6-0.6c-6.9,0-13.8-0.7-20.6-1.8c-0.9-0.1-1.8,0-2.8,0l0,0c-0.3,1-0.6,2.1-1,3.1
			c-8.7,24.1-12.8,48.4-12.2,72.7c5.1-3.1,11.1-4.9,17.7-4.9C462.1,533.4,465,533.8,467.8,534.5z"/>
		<path fill-rule="evenodd" fill="#FFFFFF" d="M455.8,461.6c8.4,0,16.8,0.5,25,2.5c0.3,0.5,0.4,0.9,0.5,1.4c1.3,1.2,3,1,4.6,0.8
			c9.3-1.1,18.8-0.9,28.1-2.3c24.8-3.8,48.2-11.6,70.1-24.1c13.3-7.5,25.4-16.5,36.4-26.7c-10-2.4-19.1-6.8-27-12.7
			c-14.5,11.7-30.5,21-48.4,27.4c-15.7,5.7-31.7,9.9-48.5,9.9c-0.5,0.5-1.1,1-1.8,1.3c-8.4,0.6-16.9,0.1-25.3-0.1
			c-1.1,0-2.1-0.2-3.1-0.8c0.2-0.3,0.4-0.6,0.5-1c-2.2-0.3-4.4-0.1-6.6-0.5c-59.1-9.8-102.6-41.5-129.9-94.7
			c-15.3-29.9-20.1-62.1-16.3-95.4c5.3-45.7,25.8-83.5,61.1-112.8c37.7-31.2,81.5-43.8,130-38.4c45.2,5.1,82.3,25.8,111.9,60.1
			c2.1,2.5,3.6,5.7,6.7,7.2c3.9-5.8,7.7-11.8,12-17.4c1.1-1.4,2-3.2,4-3.6l0,0c-0.9-1-1.9-2.1-2.7-3.1
			c-48.4-57.1-124-82.5-197.1-65.3C339,97,270.3,195.4,290.3,302.6c11.7,62.9,47.3,109.3,103.6,139.8c19,10.3,39.5,16.5,60.9,20.1
			l0,0C455,462.1,455.3,461.6,455.8,461.6z"/>
		<path fill-rule="evenodd" fill="#FFFFFF" d="M640.2,190c0.3,1.6,0.9,3.2,1.6,4.7c3.2,6.5,5.6,13.4,7.8,20.3
			c6.4,20,9,40.6,7.7,61.5c9.3,2.3,17.8,6.4,25.2,11.7c0-0.4,0.1-0.8,0.1-1.1c3.1-30.9-0.6-60.9-11.5-90
			c-4.2-11.2-9.1-22.1-15.7-32.2c-5.7,7.5-10.5,15.7-14.8,24.1C640.5,189.3,640.3,189.7,640.2,190z"/>
		<path fill-rule="evenodd" fill="#FFFFFF" d="M493.5,437.8c1,0,2,0,3.1,0c0.8-0.7,1.5-1.6,2.1-2.5c19.9-27.5,44.4-47.6,73.7-59.9
			c-4.1-8.1-6.6-17.1-7.1-26.5c-8.8,3.5-17.1,7.9-25.4,12.4c-1.4,0.7-2.5,1.8-3.2,3.2c-15.5,9.7-29.6,21-42,34.5
			c-10.8,11.7-20.3,24.2-27.7,38.3c0.3,0,0.5,0.1,0.8,0.1C476.3,438.1,484.9,437.5,493.5,437.8z"/>
	</g>
	<g>
		<path fill-rule="evenodd" fill="#FFFFFF" d="M571.8,286.9c-4.2,2.4-5.3,6.3-5.9,10.4c-0.6,4.3-0.7,8.8-1.6,13.1
			c-0.8,3.7-2.3,7.3-3.7,11.6c-2.1-12.3-4.8-23.5-5.7-34.8c-1.8-21.9,3.8-42,17.4-59.5c5.9-7.6,14.2-12.3,22.7-16.3
			c8.9-4.1,18-8.3,27.5-10.6c20.4-4.8,39.9-2.5,57.2,10.7c5.9,4.5,11.9,8.7,17.8,13.1c6.8,5,12.1,11.4,14.8,19.2
			c3.5,10.1,6.4,20.4,8.7,30.8c1.5,6.8,0.6,13.8-2.3,20.3c-2.5,5.6-3.4,11.3-3.1,17.4c0.2,3.9-0.3,7.7-0.4,11.6
			c-0.5,0.1-1.1,0.2-1.6,0.3c-0.6-2.2-1.6-4.4-1.8-6.7c-0.4-5-0.4-10-0.5-15c0-5.2-1.4-10-4-14.6c-3.2-5.7-5.8-11.6-4.3-18.6
			c-2.6,2.8-2.9,6.1-2,9.3c1.1,3.8,2.5,7.7,4.5,11.2c3.8,6.6,5.1,13.5,4.3,20.9c-0.3,2.5-0.4,5-0.6,7.5c-0.3,4.2,0.3,7.8,4.5,10.4
			c3.7,2.2,4,5.8,1.9,9.7c-3.1,5.8-8.4,8.9-14.3,11.2c-3.1,1.2-6.3,2.2-9.5,3.2c-4.3,1.3-7.2,4.2-8.4,8.5
			c-1.6,5.7-2.9,11.5-4.2,17.3c-0.8,3.4-1.3,3.8-5.3,3.1c0.2-2.2,0.4-4.4,0.7-7c-3.1,1.7,0.1,7.8-6.6,6.9c-5.1-0.7-5.3-3.3-5.7-7.1
			c-0.3,0.2-0.7,0.3-1,0.5c0,0.8-0.3,1.7-0.1,2.4c0.6,2.2,0.2,3.8-2.2,4.3c-2.3,0.5-5.6-1.9-5.8-4c-0.1-1.8-0.2-3.5-0.3-5.3
			c-0.4,0-0.7,0-1.1,0c-0.1,2.3,0,4.7-0.6,6.9c-0.3,1.1-1.7,2.2-2.8,2.6c-1,0.4-2.3,0-3.5,0c-4.7-0.4-5.9-1.8-5.8-6.4
			c0-0.8-0.1-1.6-0.7-2.5c-0.8,2.4-1,5.6-2.6,6.9c-1.7,1.3-5,1.4-7.3,1c-4-0.7-1.2-4.8-2.8-7.5c-0.6,2.1-0.8,4-1.7,5.4
			c-0.7,1.1-2.2,2.2-3.5,2.5c-2.5,0.5-3.8-0.5-3.1-3.4c0.4-1.8,0.2-3.6,0.3-5.4c-0.3,0-0.6-0.1-1-0.1c-0.2,1.8-0.5,3.6-0.7,5.4
			c-0.3,2.5-5,5.4-7.1,4.3c-0.7-0.4-1.1-1.7-1.1-2.6c0-2.4,0.2-4.9,0.4-7.4c-0.4-0.1-0.8-0.1-1.1-0.2c-0.3,2.3-0.8,4.5-0.9,6.8
			c0,2.1-0.2,4.3-2.7,4c-1.5-0.2-3.3-1.7-4-3.1c-0.9-1.9-0.7-4.2-1-6.3c-0.5-3.6-1.1-7.3-1.5-10.9c-0.5-4.9-3.3-7.8-7.8-9.1
			c-5.5-1.5-11.1-2.6-16.6-4.1c-9.1-2.5-13.6-8.9-13-18.2c0-0.7,0.3-1.4,0.7-1.9c3.2-3.5,4.3-7.8,4.8-12.4
			c1.1-9.4,1.9-18.9,5.9-27.7C571.7,288,571.7,287.4,571.8,286.9z M657.8,309.3c0.2,2.5,0.3,5,0.8,7.4c1,5,3.8,9.1,9,9.9
			c7.8,1.2,15.8,2.1,23.7,2.3c6.1,0.2,10-3.4,11.3-9.4c2-9.1,0.9-17.9-3.9-26.1c-2.2-3.8-5.6-5.5-9.9-6.1
			c-9.9-1.5-17.8,2.7-25.1,8.6C659.5,299.3,656.9,303.6,657.8,309.3z M596.9,291.3c-8.6-0.3-16,2.6-21.3,10.1
			c-7.6,10.7-3,22.9,9.7,25.7c13.5,3,27.8-2.9,33.6-13.6c2.4-4.4,2-8.4-0.7-12.4C613.1,293.7,605.8,291.1,596.9,291.3z M657.3,340.4
			c-0.2-0.2-0.5-0.3-0.7-0.5c-0.2-1.3-0.4-2.6-0.7-3.8c-0.5-1.6-1.1-3.1-1.8-4.6c-2.3-5.2-4.5-10.5-7-15.6c-0.6-1.3-2.4-2-3.6-2.9
			c-0.8,1.1-2.3,2.2-2.4,3.4c-0.7,6.5-1.5,13-1.5,19.5c0,3.3,1,6.8,2.4,9.9c2.2,4.8,7.4,5.8,11.1,2.1
			C655,345.8,655.9,342.9,657.3,340.4z M637.1,327.1c0.1,0,0.2,0,0.3,0c0-3.3,0.2-6.7-0.1-10c-0.1-1.5-1.4-2.8-2.1-4.2
			c-1.3,1-3.4,1.8-3.7,3.1c-1.7,6.3-5.1,11.6-8.6,17c-2.8,4.4-2.7,9.3,0.1,13.8c2.2,3.5,5.3,3.8,8.4,1.1c3.7-3.3,6.1-7.1,5.8-12.4
			C636.9,332.8,637.1,330,637.1,327.1z"/>
		<path fill-rule="evenodd" fill="#DDDBDB" d="M560.7,517.6c27.2-8.3,52.8-19.2,78.2-30.4c23.6-10.4,47-21.3,68.9-35.1
			c4.4-2.8,8.3-6.3,12.3-9.6c1.4-1.2,2.4-2.8,3.6-4.3c-31.8,22.1-67.2,36.5-102.3,51.4c-17.9,7.6-36.3,14.1-54.5,21
			c-1.9,0.7-3.8,1.2-5.8,1.7c-3.6,0.9-4.6,0.1-5.8-3.8c-1.1-3.7-0.3-5.9,2.7-7c34.7-13.1,67.6-29.8,99.4-48.8
			c9.9-5.9,19.5-12.3,29-18.9c8.7-6,17.1-12.4,25.6-18.6c32.7-23.6,61.9-51.1,87.4-82.3c14.9-18.2,28.6-37.2,37.8-58.9
			c2.9-6.8,4.9-14,7.4-21.5c1,2.1,2.1,4.1,2.9,6.3c7,17.7,6,35.6,1.2,53.6c-7,26.5-20.7,49.4-37.5,70.7c-12.2,15.8-26.2,30-41.4,43
			c-36.3,31.2-77,55.1-121.1,73.4c-25,10.4-50.5,18.9-77.6,22.2C566.9,522.2,563.8,520.7,560.7,517.6z"/>
		<path fill-rule="evenodd" fill="#DDDBDB" d="M436,252.6c2.7,14.8,8.9,27.9,16.3,40.4c15.4,26.2,34.8,49.3,56,70.9
			c19.2,19.5,40.3,36.8,62.1,53.4c20.3,15.6,41.8,29.3,63.8,42.3c0.6,0.3,1.1,0.8,2.3,1.7c-6.6,3.5-12.7,6.8-18.9,9.9
			c-0.6,0.3-1.8-0.3-2.6-0.7c-15.1-7.8-30.2-15.5-45.2-23.6c-4.5-2.4-8.5-5.9-12.8-8.9c-0.2,0.2-0.4,0.4-0.7,0.6
			c2.4,2.5,4.4,5.3,7.1,7.3c13.8,10.4,29.3,18.1,44.7,25.9c1.1,0.6,2.2,1.2,4.1,2.2c-6,2.9-11.4,5.6-16.9,8.1
			c-0.7,0.3-2.1-0.2-3-0.7c-15.2-9.1-30.6-17.9-45.5-27.4c-9.8-6.3-19.2-13.2-28.1-20.6c-19.8-16.2-38.1-33.9-53.5-54.5
			c-16.5-22-29.9-45.5-35.6-72.7c-3.7-17.6-3.4-35,4.6-51.6c0.2-0.4,0.4-0.9,0.7-1.2C435.1,253.2,435.4,253.1,436,252.6z"/>
		<path fill-rule="evenodd" fill="#FFFFFF" d="M630.7,387.4c-0.2,2.8-0.3,5-0.4,7.1c0.3,0.2,0.7,0.3,1,0.5c-0.1-5.3,2.1-8,7.4-7.9
			c0,2.1,0,4.2,0,6.2c1.2-4.6,3.4-7.4,9-5.9c-0.2,1.8-0.3,3.7-0.6,6.4c3.9-7,4-7,9.4-5.9c0.3,1.9,0.5,3.8,0.8,5.7
			c0.4,0,0.8,0,1.2-0.1c0-1.2,0.1-2.4,0-3.5c-0.1-2,0.3-3.6,2.8-3.5c2.1,0.1,4.4-0.1,4.7,3c0.2,1.8,0.6,3.5,0.9,5.3
			c0.3,0,0.6,0,0.9-0.1c0.1-1.5,0-2.9,0.3-4.4c0.2-1.3,0.6-3.5,1.1-3.6c2.2-0.3,4.5-0.1,6.7,0.4c0.9,0.2,1.4,1.8,2,2.8
			c0.5-0.1,1-0.2,1.5-0.2c1.1-2.9,3-5.7,3.3-8.7c0.6-7.3,4.3-13.4,7-19.9c1-2.4,3-3.7,5.7-3.2c2.6,0.5,4.4,2.2,4.3,4.9
			c-0.2,7-0.6,14-1.2,20.9c-0.5,5.8-1.4,11.5-2.2,17.3c-0.1,1.1,0,2.3-0.5,3.1c-5.1,8.8-8.6,18.8-18.2,24.4
			c-3.9,2.3-7.9,3.7-12.2,3.3c-13.6-1.3-27,0.1-40.4,2.7c-2.4,0.5-5,0.6-7.4,0.7c-6.1,0.3-11.6-1.3-16-5.6
			c-8.6-8.5-17.2-17.1-23.1-27.8c-1.1-2-1-4.7-1-7c-0.1-4.5,0.3-9,0.2-13.5c-0.2-5.7-0.9-11.4-1.1-17.1c-0.1-2.7,0.4-6.3,3.5-6.6
			c3.3-0.3,3.6,3.3,4,5.7c1,6.5,4.3,11.4,9.1,15.7c1.7,1.5,3,3.4,4.5,4.5c2.8,1.1,6.4,1.4,8.3,3.4c1.9,2,2.1,5.5,3.6,8.5
			c0-1.8,0.1-3.5,0-5.2c-0.1-1.9,0.4-3.2,2.5-2.8c2,0.4,4.9-0.9,5.4,2.5c0.2,1.2,0,2.5,0,3.7c0.3,0,0.6,0,0.9,0.1
			c0.2-0.8,0.5-1.6,0.5-2.5c0.3-2.7,1.4-3.8,4.3-2.7c0.9,0.4,2.2-0.3,3.3-0.5C627.6,388,628.9,387.7,630.7,387.4z"/>
		<path fill-rule="evenodd" fill="#FFFFFF" d="M473.1,542.2c8.7-6.7,17-13.2,25.4-19.6c5.7-4.4,12.5-6.2,19.4-7.3
			c6.4-1,12.8-2.3,19.2-3.3c0.7-0.1,1.8,0.1,2.1,0.6c3.6,6.2,7.1,12.5,10.2,18.1c-7.6,5.7-14.7,11.4-22.1,16.6
			c-11.2,7.9-23.3,13.7-37.6,13c-3-0.2-6.1,0.5-9.4,0.8C480.2,553.5,478.1,547.1,473.1,542.2z"/>
		<path fill-rule="evenodd" fill="#FFFFFF" d="M806.9,542.1c-4.8,5-7.1,11.2-7,18.8c-2.9-0.3-5.6-0.9-8.2-0.7
			c-18.8,1-33.4-8.2-47.4-19.2c-4.4-3.5-8.9-6.8-13.8-10.5c3-5.4,6.4-11.6,10-17.7c0.3-0.6,1.8-0.9,2.6-0.8c5.7,0.9,11.4,2.3,17.1,3
			c9.2,1.1,17.4,4,24.7,10C791.9,530.9,799.3,536.3,806.9,542.1z"/>
		<path fill-rule="evenodd" fill="#DDDBDB" d="M719.4,517.4c-2.8,2.8-5.5,4.8-9.3,4.4c-22-2.4-43-8.6-63.6-16.3
			c-0.2-0.1-0.3-0.3-0.9-0.8c5.9-2.5,11.5-5.1,17.3-7.3c1.2-0.4,2.9,0.5,4.3,1c15.3,5.7,30.6,11.5,45.9,17.3
			C715.1,516.3,717,516.8,719.4,517.4z"/>
		<path fill-rule="evenodd" fill="#DDDBDB" d="M670.2,493.9c4.9-2.4,9.6-4.9,14.4-7.1c0.9-0.4,2.5,0.2,3.6,0.7
			c11.3,4.7,22.5,9.4,33.8,14.1c2.9,1.2,3.8,3.4,2.7,7c-1.2,3.9-2.4,4.9-5.8,3.7c-16-5.7-31.8-11.6-47.8-17.5
			C671,494.7,670.7,494.4,670.2,493.9z"/>
	</g>
	<path fill-rule="evenodd" fill="#FFFFFF" d="M565.9,531.4c-3.6-7.1-8.3-13.5-12.5-20.3c-1.1-1.8-2.2-3.5-3.2-5.3l-6.8,3l13.4,27.7
		c7.7,14.8,4,34.4-8.5,45.4c-11.3,10-24.6,12.2-39,8.5c-12.7-3.2-23.2-10.1-32.3-19.3c-2-2-2.8-3.4-1.8-6.3
		c4.9-15.3-7.6-28.7-23.3-25.1c-9.8,2.3-15.7,11.4-14.7,22.6c0.9,9.5,7.9,16,17.9,16.5c4.6,0.2,9-0.3,12.8-3.7
		c1,1.2,1.8,2.2,2.7,3.1c18.6,19.4,40.9,27.4,67.5,21.7c7.1-1.5,13.4-5,18.5-10.1C572.6,574,577.8,554.7,565.9,531.4z"/>
	<path fill-rule="evenodd" fill="#FFFFFF" d="M840.3,548.2c-4.9-8.2-13.9-11.3-23.2-7.9c-8.9,3.2-15.5,12.8-13,21.2
		c1.9,6.3-0.4,9.4-4.7,12.6c-0.8,0.6-1.4,1.3-2.1,1.9c-10.6,9.6-23.1,15.1-37.3,15.8c-14.6,0.7-26.7-5-34.6-17.4
		c-7.9-12.4-8.5-25.8-1.7-39c4.6-8.9,9.7-17.5,14.4-26.3l-7.9-4.2c-3.1,5-6.2,10-9.3,15.1c-5.1,8.3-10,16.5-12.3,26.3
		c-5.7,25,13.7,50.7,35.7,54.3c15.9,2.6,31,0.6,45.2-7.1c8.5-4.6,16-10.5,22-18c2,1,3.8,2.1,5.7,2.7c8.1,2.5,17.7-0.5,22.5-6.9
		C844.4,565,844.7,555.5,840.3,548.2z"/>
</g>
</svg>
